# xmcd CD database file
#
# Track frame offsets:
#	150
#	27431
#	62131
#	80467
#	134534
#	159425
#	185413
#	226152
#	246385
#
# Disc length: 3615 seconds
#
# Revision: 0
# Processed by: cddbd v1.5.1PL0 Copyright (c) Steve Scherf et al.
# Submitted via: CDex 1.51
#
DISCID=740e1d09
DTITLE=Kayla Taylor Jazz - A Night At Pacific and Vine
DYEAR=2005
DGENRE=Jazz
TTITLE0=Sugar
TTITLE1=The Nearness of You
TTITLE2=Diamonds Are A Girl's Best Friend
TTITLE3=Fever
TTITLE4=Cry Me A River
TTITLE5=On The Streets Where You Live
TTITLE6=The Look of Love
TTITLE7=Is You or Is You Ain't (My Baby)
TTITLE8=At Last
EXTD=YEAR: 2005
EXTT0=
EXTT1=
EXTT2=
EXTT3=
EXTT4=
EXTT5=
EXTT6=
EXTT7=
EXTT8=
PLAYORDER=
